<?xml version="1.0" standalone="no"?>
<!DOCTYPE svg PUBLIC "-//W3C//DTD SVG 20010904//EN"
 "http://www.w3.org/TR/2001/REC-SVG-20010904/DTD/svg10.dtd">
<svg version="1.0" xmlns="http://www.w3.org/2000/svg"
 width="360.000000pt" height="360.000000pt" viewBox="0 0 360.000000 360.000000"
 preserveAspectRatio="xMidYMid meet">

<g transform="translate(0.000000,360.000000) scale(0.100000,-0.100000)"
fill="#000000" stroke="none">
<path d="M1670 3025 c-8 -2 -49 -9 -90 -15 -231 -37 -476 -165 -651 -339 -166
-167 -284 -385 -336 -623 -25 -116 -25 -380 0 -496 107 -487 472 -852 959
-959 116 -25 380 -25 496 0 378 83 679 315 852 657 96 191 135 376 127 595 -8
199 -42 335 -127 505 -167 332 -468 569 -827 651 -81 18 -358 35 -403 24z
m335 -95 c78 -14 237 -66 300 -98 144 -72 325 -223 412 -342 105 -144 185
-327 214 -490 17 -93 17 -313 0 -400 -68 -354 -282 -645 -601 -817 -202 -109
-456 -153 -687 -119 -260 38 -482 151 -664 338 -296 304 -401 744 -272 1143
112 348 383 626 720 739 56 19 135 39 175 45 40 6 84 13 98 15 39 7 239 -2
305 -14z"/>
<path d="M1625 2895 c-240 -42 -428 -137 -598 -304 -229 -222 -351 -530 -334
-841 9 -166 39 -285 111 -434 85 -178 219 -330 386 -440 277 -183 606 -232
930 -139 79 22 245 103 317 155 440 311 594 886 368 1374 -130 283 -390 508
-690 598 -142 42 -351 56 -490 31z m339 -35 c140 -21 332 -98 455 -184 55 -38
215 -198 258 -257 54 -75 130 -239 160 -344 25 -92 28 -114 28 -275 0 -163 -2
-182 -29 -275 -31 -109 -106 -269 -164 -350 -46 -64 -193 -209 -263 -258 -77
-55 -218 -120 -334 -153 -93 -27 -112 -29 -275 -29 -161 0 -183 3 -275 28
-187 52 -344 144 -481 281 -95 96 -141 159 -199 275 -101 202 -137 423 -105
645 21 144 97 330 189 461 43 62 191 209 251 251 124 85 317 164 450 183 79
12 254 12 334 1z"/>
<path d="M1725 2746 c-87 -25 -150 -78 -184 -157 l-21 -47 -70 -4 c-57 -3 -77
-9 -112 -34 -139 -97 -124 -308 27 -387 46 -24 146 -28 183 -8 13 7 26 11 28
8 3 -3 -13 -69 -36 -147 -23 -78 -39 -145 -36 -147 3 -3 47 6 98 21 130 37
266 37 396 0 51 -15 95 -24 98 -22 2 3 -14 69 -36 147 -22 78 -40 144 -40 147
0 3 8 3 18 -1 124 -51 250 -3 302 117 41 97 9 211 -78 272 -35 25 -55 31 -112
34 l-70 4 -21 47 c-56 128 -200 196 -334 157z m162 -59 c71 -26 142 -123 143
-194 l0 -32 35 15 c99 41 207 -12 235 -116 20 -75 -25 -166 -97 -196 -42 -18
-107 -18 -142 1 -38 19 -81 71 -88 106 -3 16 -7 29 -8 29 -1 0 -24 -12 -51
-27 -69 -39 -159 -39 -226 0 -54 31 -58 32 -58 12 0 -32 -35 -83 -73 -109 -97
-62 -226 -10 -257 104 -36 134 118 258 240 195 29 -15 30 -15 30 7 0 76 75
184 143 206 43 14 135 13 174 -1z m-87 -496 c30 0 72 6 93 13 20 8 39 11 41 7
11 -20 88 -303 83 -307 -3 -4 -30 0 -59 7 -68 18 -248 18 -316 0 -29 -7 -56
-11 -59 -8 -4 5 72 287 83 308 2 4 21 1 41 -7 21 -7 63 -13 93 -13z"/>
<path d="M1054 1830 c-29 -11 -130 -106 -176 -163 -57 -73 -54 -86 55 -194 50
-51 95 -95 99 -99 3 -3 23 -10 44 -14 30 -7 50 -4 102 17 l64 26 65 -66 66
-65 -32 -49 c-32 -47 -32 -49 -26 -133 l7 -85 51 -51 c29 -28 67 -58 85 -67
17 -9 45 -24 62 -33 43 -22 135 -10 167 22 23 23 25 23 49 8 23 -16 26 -15 44
1 19 17 21 17 39 1 18 -16 51 -13 51 5 0 16 19 10 43 -15 32 -32 124 -44 167
-22 17 9 45 23 63 33 17 9 54 38 81 65 43 42 51 56 57 101 14 97 11 121 -23
171 l-31 48 66 65 65 66 67 -27 c98 -39 122 -30 241 92 65 66 94 103 94 120 0
33 -47 98 -125 171 -115 107 -138 107 -235 4 -111 -119 -123 -138 -122 -186 0
-23 10 -60 21 -82 12 -21 21 -46 21 -55 0 -9 -29 -44 -64 -79 l-63 -63 -42 21
c-22 12 -41 28 -41 37 0 26 -56 74 -85 74 -16 0 -38 -12 -56 -30 -27 -26 -30
-36 -28 -82 1 -36 -5 -68 -19 -100 -11 -26 -24 -63 -28 -83 -4 -25 -14 -40
-31 -48 -29 -13 -39 -47 -24 -89 10 -29 9 -34 -14 -55 l-25 -24 -25 24 c-23
21 -24 26 -14 55 15 42 5 76 -24 89 -17 8 -27 23 -31 48 -4 20 -17 57 -28 83
-14 32 -20 64 -19 100 2 48 -1 56 -29 82 -18 17 -43 30 -57 30 -27 0 -83 -50
-83 -74 0 -9 -19 -25 -41 -37 l-42 -21 -63 63 c-35 35 -64 70 -64 79 0 9 8 32
19 52 48 95 36 130 -84 256 -90 95 -108 104 -161 82z m151 -130 c63 -63 77
-82 67 -92 -10 -10 -29 4 -92 67 -76 76 -95 105 -67 105 7 0 48 -36 92 -80z
m-50 -50 c63 -63 77 -82 67 -92 -10 -10 -29 4 -92 67 -44 44 -80 85 -80 92 0
28 29 9 105 -67z m-50 -50 c63 -63 77 -82 67 -92 -10 -10 -29 4 -92 67 -44 44
-80 85 -80 92 0 28 29 9 105 -67z m17 -142 c-10 -10 -29 4 -94 69 -61 62 -79
85 -74 99 6 15 22 3 94 -69 69 -69 84 -89 74 -99z m-113 40 c57 -59 72 -81 63
-90 -16 -16 -178 142 -169 165 9 24 23 14 106 -75z m1066 -121 c8 -12 15 -31
15 -43 0 -16 8 -24 28 -29 40 -8 97 -58 128 -111 24 -42 26 -49 14 -83 -6 -20
-10 -43 -9 -51 5 -22 -10 -70 -21 -70 -6 0 -27 -16 -49 -35 -21 -19 -43 -35
-48 -35 -5 0 -24 -11 -43 -25 -25 -18 -47 -25 -80 -25 -49 0 -95 24 -86 45 2
7 -8 25 -24 40 -38 36 -53 78 -36 101 19 25 52 13 115 -43 30 -26 49 -38 43
-27 -6 12 -35 40 -65 63 -45 34 -53 45 -49 66 11 61 71 50 160 -29 28 -27 52
-44 52 -38 0 14 -82 87 -119 106 -17 9 -31 20 -31 24 0 17 32 52 48 52 26 0
77 -31 122 -73 22 -21 40 -34 40 -27 0 19 -89 98 -124 110 -45 15 -84 -1 -99
-40 -6 -17 -17 -30 -24 -30 -18 0 -17 6 9 51 19 34 26 39 58 39 20 0 45 7 56
16 19 15 19 16 -1 8 -52 -19 -95 1 -95 45 0 68 79 100 115 48z m-455 3 c23
-23 26 -72 5 -90 -17 -14 -51 -17 -80 -6 -20 8 -20 7 -1 -8 11 -9 36 -16 56
-16 32 0 39 -5 58 -39 25 -43 26 -51 12 -51 -5 0 -17 14 -25 30 -34 65 -103
59 -180 -15 -64 -63 -56 -77 10 -17 67 61 111 75 137 42 25 -30 23 -37 -13
-56 -37 -19 -119 -92 -119 -106 0 -6 24 11 53 38 88 79 148 90 159 29 4 -21
-3 -31 -44 -62 -27 -21 -56 -49 -65 -63 -14 -22 -12 -22 18 6 58 53 91 74 114
74 45 0 34 -71 -18 -119 -14 -13 -23 -29 -21 -36 9 -21 -37 -45 -86 -45 -33 0
-55 7 -80 25 -19 14 -38 25 -43 25 -5 0 -28 16 -51 36 -22 19 -47 39 -53 45
-7 5 -13 26 -13 46 0 20 -5 51 -12 69 -10 28 -8 37 15 77 32 54 89 104 129
112 20 5 28 13 28 29 0 59 68 88 110 46z"/>
<path d="M1600 1778 c-34 -36 -33 -47 2 -24 27 18 72 23 108 12 24 -7 24 -6
-5 18 -40 35 -70 33 -105 -6z"/>
<path d="M1895 1784 c-21 -18 -24 -23 -10 -18 31 11 86 5 113 -12 35 -23 36
-12 1 24 -38 39 -64 40 -104 6z"/>
<path d="M1679 1611 c-70 -50 -94 -57 -109 -34 -9 16 -10 15 -8 -7 4 -34 45
-38 108 -11 27 12 62 21 77 21 16 0 34 5 41 12 9 9 15 9 24 0 7 -7 25 -12 41
-12 15 0 50 -9 77 -21 63 -27 104 -23 108 11 3 23 3 24 -10 6 -14 -18 -16 -18
-48 -1 -18 9 -51 30 -73 46 -42 30 -91 38 -101 17 -5 -10 -7 -10 -12 0 -11 23
-60 12 -115 -27z"/>
<path d="M1730 1412 c0 -10 51 -32 73 -32 10 0 30 9 44 20 28 22 18 26 -20 9
-17 -7 -35 -8 -60 -1 -21 6 -37 7 -37 4z"/>
</g>
</svg>
